<?xml version="1.0" encoding="UTF-8"?>
<svg id="Layer_1" data-name="Layer 1" xmlns="http://www.w3.org/2000/svg" viewBox="0 0 440.3 480.05">
  <defs>
    <style>
      .cls-1 {
        fill: #231f20;
      }
    </style>
  </defs>
  <path class="cls-1" d="M382.77,349.91c32.17-38.09,50.13-86.46,50.13-137.17C432.89,95.44,337.46,0,220.15,0S7.41,95.44,7.41,212.74c0,50.71,17.95,99.07,50.13,137.17L0,435.38l66.37,44.67,153.78-228.46,153.78,228.46,66.37-44.67-57.53-85.47ZM105.18,279.12c-11.52-19.94-17.78-42.75-17.78-66.38,0-73.19,59.55-132.74,132.74-132.74s132.74,59.55,132.74,132.74c0,23.62-6.25,46.44-17.78,66.38l-114.97-170.8-114.97,170.8Z"/>
</svg>
